<?xml version="1.0" encoding="UTF-8" standalone="no"?><svg xmlns="http://www.w3.org/2000/svg" xmlns:xlink="http://www.w3.org/1999/xlink" contentStyleType="text/css" height="580px" preserveAspectRatio="none" style="width:449px;height:580px;background:#FFFFFF;" version="1.1" viewBox="0 0 449 580" width="449px" zoomAndPan="magnify"><defs/><g><!--cluster oop.classes--><g id="cluster_oop.classes"><path d="M8.5,6 L103.5,6 A3.75,3.75 0 0 1 106,8.5 L113,28.2969 L439.5,28.2969 A2.5,2.5 0 0 1 442,30.7969 L442,552.5 A2.5,2.5 0 0 1 439.5,555 L8.5,555 A2.5,2.5 0 0 1 6,552.5 L6,8.5 A2.5,2.5 0 0 1 8.5,6 " fill="none" style="stroke:#000000;stroke-width:1.5;"/><line style="stroke:#000000;stroke-width:1.5;" x1="6" x2="113" y1="28.2969" y2="28.2969"/><text fill="#000000" font-family="sans-serif" font-size="14" font-weight="bold" lengthAdjust="spacing" textLength="94" x="10" y="20.9951">oop.classes</text></g><!--class oop.classes.TimeSheet--><a href="TimeSheet.html" target="_top" title="TimeSheet.html" xlink:actuate="onRequest" xlink:href="TimeSheet.html" xlink:show="new" xlink:title="TimeSheet.html" xlink:type="simple"><g id="elem_oop.classes.TimeSheet"><rect codeLine="3" fill="#F1F1F1" height="259.8594" id="oop.classes.TimeSheet" rx="2.5" ry="2.5" style="stroke:#181818;stroke-width:0.5;" width="209" x="204.5" y="279"/><ellipse cx="267.25" cy="295" fill="#ADD1B2" rx="11" ry="11" style="stroke:#181818;stroke-width:1.0;"/><path d="M270.2188,300.6406 Q269.6406,300.9375 269,301.0781 Q268.3594,301.2344 267.6563,301.2344 Q265.1563,301.2344 263.8281,299.5938 Q262.5156,297.9375 262.5156,294.8125 Q262.5156,291.6875 263.8281,290.0313 Q265.1563,288.375 267.6563,288.375 Q268.3594,288.375 269,288.5313 Q269.6563,288.6875 270.2188,288.9844 L270.2188,291.7031 Q269.5938,291.125 269,290.8594 Q268.4063,290.5781 267.7813,290.5781 Q266.4375,290.5781 265.75,291.6563 Q265.0625,292.7188 265.0625,294.8125 Q265.0625,296.9063 265.75,297.9844 Q266.4375,299.0469 267.7813,299.0469 Q268.4063,299.0469 269,298.7813 Q269.5938,298.5 270.2188,297.9219 L270.2188,300.6406 Z " fill="#000000"/><text fill="#000000" font-family="sans-serif" font-size="14" lengthAdjust="spacing" textLength="75" x="287.75" y="299.8467">TimeSheet</text><line style="stroke:#181818;stroke-width:0.5;" x1="205.5" x2="412.5" y1="311" y2="311"/><rect fill="none" height="6" style="stroke:#C82930;stroke-width:1.0;" width="6" x="212.5" y="321.6484"/><text fill="#000000" font-family="sans-serif" font-size="14" lengthAdjust="spacing" textLength="106" x="224.5" y="327.9951">employeeId: int</text><rect fill="none" height="6" style="stroke:#C82930;stroke-width:1.0;" width="6" x="212.5" y="337.9453"/><text fill="#000000" font-family="sans-serif" font-size="14" lengthAdjust="spacing" textLength="121" x="224.5" y="344.292">workingHours: int</text><rect fill="none" height="6" style="stroke:#C82930;stroke-width:1.0;" width="6" x="212.5" y="354.2422"/><text fill="#000000" font-family="sans-serif" font-size="14" lengthAdjust="spacing" textLength="93" x="224.5" y="360.5889">sickLeave: int</text><rect fill="none" height="6" style="stroke:#C82930;stroke-width:1.0;" width="6" x="212.5" y="370.5391"/><text fill="#000000" font-family="sans-serif" font-size="14" lengthAdjust="spacing" textLength="83" x="224.5" y="376.8857">vacation: int</text><line style="stroke:#181818;stroke-width:0.5;" x1="205.5" x2="412.5" y1="384.1875" y2="384.1875"/><ellipse cx="215.5" cy="397.8359" fill="#84BE84" rx="3" ry="3" style="stroke:#038048;stroke-width:1.0;"/><text fill="#000000" font-family="sans-serif" font-size="14" lengthAdjust="spacing" textLength="102" x="224.5" y="401.1826">TimeSheet(int)</text><ellipse cx="215.5" cy="414.1328" fill="#84BE84" rx="3" ry="3" style="stroke:#038048;stroke-width:1.0;"/><text fill="#000000" font-family="sans-serif" font-size="14" lengthAdjust="spacing" textLength="160" x="224.5" y="417.4795">TimeSheet(TimeSheet)</text><ellipse cx="215.5" cy="430.4297" fill="#84BE84" rx="3" ry="3" style="stroke:#038048;stroke-width:1.0;"/><text fill="#000000" font-family="sans-serif" font-size="14" lengthAdjust="spacing" textLength="183" x="224.5" y="433.7764">setWorkingHours(int): void</text><ellipse cx="215.5" cy="446.7266" fill="#84BE84" rx="3" ry="3" style="stroke:#038048;stroke-width:1.0;"/><text fill="#000000" font-family="sans-serif" font-size="14" lengthAdjust="spacing" textLength="154" x="224.5" y="450.0732">setSickLeave(int): void</text><ellipse cx="215.5" cy="463.0234" fill="#84BE84" rx="3" ry="3" style="stroke:#038048;stroke-width:1.0;"/><text fill="#000000" font-family="sans-serif" font-size="14" lengthAdjust="spacing" textLength="145" x="224.5" y="466.3701">setVacation(int): void</text><ellipse cx="215.5" cy="479.3203" fill="#84BE84" rx="3" ry="3" style="stroke:#038048;stroke-width:1.0;"/><text fill="#000000" font-family="sans-serif" font-size="14" lengthAdjust="spacing" textLength="139" x="224.5" y="482.667">getEmployeeId(): int</text><ellipse cx="215.5" cy="495.6172" fill="#84BE84" rx="3" ry="3" style="stroke:#038048;stroke-width:1.0;"/><text fill="#000000" font-family="sans-serif" font-size="14" lengthAdjust="spacing" textLength="127" x="224.5" y="498.9639">getSickLeave(): int</text><ellipse cx="215.5" cy="511.9141" fill="#84BE84" rx="3" ry="3" style="stroke:#038048;stroke-width:1.0;"/><text fill="#000000" font-family="sans-serif" font-size="14" lengthAdjust="spacing" textLength="156" x="224.5" y="515.2607">getWorkingHours(): int</text><ellipse cx="215.5" cy="528.2109" fill="#84BE84" rx="3" ry="3" style="stroke:#038048;stroke-width:1.0;"/><text fill="#000000" font-family="sans-serif" font-size="14" lengthAdjust="spacing" textLength="118" x="224.5" y="531.5576">getVacation(): int</text></g></a><!--class oop.classes.TimeTrack--><a href="TimeTrack.html" target="_top" title="TimeTrack.html" xlink:actuate="onRequest" xlink:href="TimeTrack.html" xlink:show="new" xlink:title="TimeTrack.html" xlink:type="simple"><g id="elem_oop.classes.TimeTrack"><rect codeLine="19" fill="#F1F1F1" height="145.7813" id="oop.classes.TimeTrack" rx="2.5" ry="2.5" style="stroke:#181818;stroke-width:0.5;" width="213" x="213.5" y="41"/><ellipse cx="279.75" cy="57" fill="#ADD1B2" rx="11" ry="11" style="stroke:#181818;stroke-width:1.0;"/><path d="M282.7188,62.6406 Q282.1406,62.9375 281.5,63.0781 Q280.8594,63.2344 280.1563,63.2344 Q277.6563,63.2344 276.3281,61.5938 Q275.0156,59.9375 275.0156,56.8125 Q275.0156,53.6875 276.3281,52.0313 Q277.6563,50.375 280.1563,50.375 Q280.8594,50.375 281.5,50.5313 Q282.1563,50.6875 282.7188,50.9844 L282.7188,53.7031 Q282.0938,53.125 281.5,52.8594 Q280.9063,52.5781 280.2813,52.5781 Q278.9375,52.5781 278.25,53.6563 Q277.5625,54.7188 277.5625,56.8125 Q277.5625,58.9063 278.25,59.9844 Q278.9375,61.0469 280.2813,61.0469 Q280.9063,61.0469 281.5,60.7813 Q282.0938,60.5 282.7188,59.9219 L282.7188,62.6406 Z " fill="#000000"/><text fill="#000000" font-family="sans-serif" font-size="14" lengthAdjust="spacing" textLength="72" x="300.25" y="61.8467">TimeTrack</text><line style="stroke:#181818;stroke-width:0.5;" x1="214.5" x2="425.5" y1="73" y2="73"/><line style="stroke:#181818;stroke-width:0.5;" x1="214.5" x2="425.5" y1="81" y2="81"/><ellipse cx="224.5" cy="94.6484" fill="#84BE84" rx="3" ry="3" style="stroke:#038048;stroke-width:1.0;"/><text fill="#000000" font-family="sans-serif" font-size="14" lengthAdjust="spacing" textLength="99" x="233.5" y="97.9951">TimeTrack(int)</text><ellipse cx="224.5" cy="110.9453" fill="#84BE84" rx="3" ry="3" style="stroke:#038048;stroke-width:1.0;"/><text fill="#000000" font-family="sans-serif" font-size="14" lengthAdjust="spacing" textLength="157" x="233.5" y="114.292">TimeTrack(TimeSheet)</text><ellipse cx="224.5" cy="127.2422" fill="#84BE84" rx="3" ry="3" style="stroke:#038048;stroke-width:1.0;"/><text fill="#000000" font-family="sans-serif" font-size="14" lengthAdjust="spacing" textLength="187" x="233.5" y="130.5889">addWorkingHours(int): void</text><ellipse cx="224.5" cy="143.5391" fill="#84BE84" rx="3" ry="3" style="stroke:#038048;stroke-width:1.0;"/><text fill="#000000" font-family="sans-serif" font-size="14" lengthAdjust="spacing" textLength="158" x="233.5" y="146.8857">addSickLeave(int): void</text><ellipse cx="224.5" cy="159.8359" fill="#84BE84" rx="3" ry="3" style="stroke:#038048;stroke-width:1.0;"/><text fill="#000000" font-family="sans-serif" font-size="14" lengthAdjust="spacing" textLength="149" x="233.5" y="163.1826">addVacation(int): void</text><ellipse cx="224.5" cy="176.1328" fill="#84BE84" rx="3" ry="3" style="stroke:#038048;stroke-width:1.0;"/><text fill="#000000" font-family="sans-serif" font-size="14" lengthAdjust="spacing" textLength="152" x="233.5" y="179.4795">startNewPeriod(): void</text></g></a><!--class oop.classes.Main--><a href="Main.html" target="_top" title="Main.html" xlink:actuate="onRequest" xlink:href="Main.html" xlink:show="new" xlink:title="Main.html" xlink:type="simple"><g id="elem_oop.classes.Main"><rect codeLine="28" fill="#F1F1F1" height="64.2969" id="oop.classes.Main" rx="2.5" ry="2.5" style="stroke:#181818;stroke-width:0.5;" width="156" x="22" y="82"/><ellipse cx="79.75" cy="98" fill="#ADD1B2" rx="11" ry="11" style="stroke:#181818;stroke-width:1.0;"/><path d="M82.7188,103.6406 Q82.1406,103.9375 81.5,104.0781 Q80.8594,104.2344 80.1563,104.2344 Q77.6563,104.2344 76.3281,102.5938 Q75.0156,100.9375 75.0156,97.8125 Q75.0156,94.6875 76.3281,93.0313 Q77.6563,91.375 80.1563,91.375 Q80.8594,91.375 81.5,91.5313 Q82.1563,91.6875 82.7188,91.9844 L82.7188,94.7031 Q82.0938,94.125 81.5,93.8594 Q80.9063,93.5781 80.2813,93.5781 Q78.9375,93.5781 78.25,94.6563 Q77.5625,95.7188 77.5625,97.8125 Q77.5625,99.9063 78.25,100.9844 Q78.9375,102.0469 80.2813,102.0469 Q80.9063,102.0469 81.5,101.7813 Q82.0938,101.5 82.7188,100.9219 L82.7188,103.6406 Z " fill="#000000"/><text fill="#000000" font-family="sans-serif" font-size="14" lengthAdjust="spacing" textLength="32" x="100.25" y="102.8467">Main</text><line style="stroke:#181818;stroke-width:0.5;" x1="23" x2="177" y1="114" y2="114"/><line style="stroke:#181818;stroke-width:0.5;" x1="23" x2="177" y1="122" y2="122"/><ellipse cx="33" cy="135.6484" fill="#84BE84" rx="3" ry="3" style="stroke:#038048;stroke-width:1.0;"/><text fill="#000000" font-family="sans-serif" font-size="14" lengthAdjust="spacing" text-decoration="underline" textLength="130" x="42" y="138.9951">main(String[]): void</text></g></a><!--link oop.classes.TimeTrack to oop.classes.TimeSheet--><g id="link_oop.classes.TimeTrack_oop.classes.TimeSheet"><path codeLine="32" d="M317.3,187.05 C316.31,213.24 315.17,243.75 314.05,273.59 " fill="none" id="oop.classes.TimeTrack-to-oop.classes.TimeSheet" style="stroke:#181818;stroke-width:1.0;"/><polygon fill="#181818" points="313.85,278.76,318.1813,269.9147,314.0356,273.7634,310.1868,269.6177,313.85,278.76" style="stroke:#181818;stroke-width:1.0;"/><text fill="#000000" font-family="sans-serif" font-size="13" lengthAdjust="spacing" textLength="67" x="341" y="230.0669">timeSheet</text><text fill="#000000" font-family="sans-serif" font-size="13" lengthAdjust="spacing" textLength="115" x="317" y="245.1997">currentTimeSheet</text></g><text fill="#888888" font-family="sans-serif" font-size="10" lengthAdjust="spacing" textLength="186" x="124.5" y="570.2822">UMLDoclet 2.1.0, PlantUML 1.2022.14</text><!--SRC=[ZPCnJyCm48Nt_efRa5A5HC2OWGaaa5fKAGM6qC5oZjPgOaVsDHMg-jznG-ecJTBYnIT_J-VdTp80W6Gvce9n1AMAa6VC63Im6usWNjKHp4MEyGgH84bS7QuepnOBguR62Z0lClM3-9f682IruLRfjP3B5xNHfWSRmTSJP2Nsi99nHaB9BlAT9S-YyH1prPd287qsR5Kz8YYLI3kw-EZlakYZDZgeMI8zkv2ySS-3bish1WGjpmCQP-MCx_i6FDUCh-i1LtN_W7t71zB-OqDfipJzLzfMTprjAxgQjY6cwGstCzH2LN6tD9qefan8cy9XwmzWPpkIu7lmSwlnOjBsCSdYGkDJka7mUFfC4T2n_99yepLASd3KwC4jG0tVIXssz-daIV7CViQ7y3wykuLPnYJPKxWfKPjgtBy0]--></g></svg>